<?xml version="1.0" encoding="utf-8"?>
<!-- Designed by Vexels.com - 2020 All Rights Reserved - https://vexels.com/terms-and-conditions/  -->
<svg version="1.1" id="Layer_1" xmlns="http://www.w3.org/2000/svg" xmlns:xlink="http://www.w3.org/1999/xlink" x="0px" y="0px"
	 viewBox="0 0 1200 1200" enable-background="new 0 0 1200 1200" xml:space="preserve">
<g>
	<g>
		<g>
			<g>
				<path d="M598.457,1147.411c-46.33,0-91.827-7.765-131.204-15.147c-74.405-13.952-144.656-46.316-208.804-96.191
					c-30.336-23.588-58.973-52.024-85.112-84.517c-30.184-37.516-55.402-79.709-77.09-128.986
					c-20.974-47.654-35.218-99.104-42.345-152.921c-4.423-33.419-4.059-66.131-3.709-97.764
					c0.757-68.218,15.601-134.706,45.378-203.265c18.579-42.769,41.646-81.173,68.556-114.142
					c55.428-67.902,117.391-115.329,189.427-144.99c27.106-11.159,50.365-18.551,73.201-23.262
					c6.522-1.343,12.647-3.444,17.713-6.075c25.402-13.197,52.598-17.396,73.453-19.581c8.248-0.864,16.701-2.04,24.875-3.178
					c20.046-2.79,40.772-5.675,61.827-4.559c6.051,0.321,12.143,0.576,18.251,0.833c32.36,1.359,65.821,2.766,96.738,13.945
					c17.289,6.251,35.337,11.664,52.793,16.896c32.638,9.786,66.388,19.903,97.905,36.187
					c63.422,32.767,115.875,75.21,160.353,129.752c48.999,60.087,83.536,130.098,102.651,208.09
					c11.716,47.797,17.744,91.713,16.534,120.488c-0.664,110.173-22.207,201.118-67.792,285.854
					c-48.749,90.62-117.093,161.893-203.131,211.834c-55.007,31.931-116.615,52.781-183.114,61.97
					c-32.519,4.497-59.675,7.986-88.392,8.627C604.43,1147.378,601.44,1147.408,598.457,1147.411z M594.96,72.083
					c-16.258,0-32.464,2.257-49.477,4.625c-8.334,1.159-16.956,2.359-25.53,3.259c-20.331,2.128-44.133,5.873-66.497,17.491
					c-6.732,3.497-14.392,6.144-22.764,7.87c-21.61,4.456-43.762,11.509-69.713,22.193
					c-68.966,28.396-128.417,73.96-181.746,139.288c-25.78,31.584-47.911,68.452-65.776,109.581
					c-28.722,66.126-43.038,130.143-43.764,195.712c-0.345,30.95-0.7,62.95,3.542,94.986c6.882,51.993,20.629,101.661,40.86,147.627
					c20.991,47.69,45.338,88.454,74.434,124.618c25.194,31.317,52.746,58.685,81.889,81.344
					c61.672,47.954,129.107,79.047,200.43,92.42c40.946,7.677,88.626,15.782,136.137,14.718c27.677-0.617,54.267-4.037,86.155-8.446
					c63.979-8.841,123.192-28.867,175.997-59.518c82.872-48.106,148.732-116.812,195.747-204.207
					c44.016-81.825,64.821-169.872,65.474-277.087c1.126-26.968-4.851-69.968-15.982-115.377
					c-18.422-75.157-51.672-142.583-98.823-200.406c-42.757-52.431-93.194-93.239-154.192-124.753
					c-29.905-15.451-62.772-25.304-94.555-34.833c-17.71-5.311-36.023-10.8-53.824-17.237c-28.099-10.16-60.039-11.502-90.925-12.8
					c-6.18-0.259-12.343-0.519-18.465-0.845C600.709,72.155,597.831,72.083,594.96,72.083z"/>
			</g>
		</g>
	</g>
	<g>
		<g>
			<g>
				<path d="M598.357,965.677c-24.359,0-48.532-1.476-72.365-4.43c-43.878-5.442-81.234-20.765-111.026-45.547
					c-7.044-5.861-14.678-11.457-22.059-16.87c-13.247-9.715-26.946-19.758-38.868-32.343
					c-57.475-60.668-92.468-135.187-104.003-221.492c-2.295-17.187-1.504-34.361-0.326-53.424
					c2.057-33.278,4.88-71.97,12.388-110.031l0.174-0.974c0.212-1.228,0.474-2.757,1.028-4.425
					c23.362-70.389,53.419-116.674,97.455-150.065c0.866-0.657,1.752-1.295,2.638-1.933c1.838-1.326,3.573-2.578,4.839-3.837
					c35.554-35.302,81.849-52.762,122.692-68.168c29.36-11.076,61.613-17.091,101.501-18.934
					c65.081-2.976,128.2,15.228,198.644,57.364c51.919,31.053,91.028,71.144,116.239,119.159
					c18.872,35.949,30.169,74.343,35.417,117.377c3.064,25.109,4.274,50.287,4.274,76.019c0,0.012,0,0.021,0,0.033
					c6,102.073-33.686,192.229-108.629,267.97c-28.222,28.522-60.88,52.398-97.493,70.961c-19.077,9.672-40.964,15.758-69.11,19.151
					C647.2,964.196,622.74,965.677,598.357,965.677z M606.036,252.391c-4.235,0-8.467,0.098-12.711,0.295
					c-37.782,1.742-68.133,7.365-95.517,17.696c-40.924,15.437-83.239,31.398-115.834,63.762c-2.357,2.34-4.918,4.187-7.177,5.815
					c-0.759,0.548-1.519,1.095-2.259,1.657c-40.703,30.862-68.687,74.248-90.732,140.679c-0.171,0.509-0.221,1.038-0.312,1.559
					l-0.262,1.452c-7.277,36.892-10.041,74.817-12.059,107.469c-1.114,18.022-1.869,34.197,0.193,49.637
					c10.981,82.156,44.233,153.033,98.828,210.663c10.717,11.309,23.116,20.4,36.244,30.027c7.617,5.587,15.497,11.364,23,17.606
					c26.875,22.357,60.841,36.213,100.954,41.186c46.118,5.72,93.61,5.711,141.152-0.019c25.816-3.111,45.749-8.57,62.734-17.18
					c34.74-17.615,65.919-40.253,92.663-67.285c71.058-71.813,105.858-157.182,103.432-253.73l0,0
					c-0.719-25.256-1.612-49.937-4.573-74.215c-4.958-40.651-16.001-76.852-33.759-110.673
					C866.522,374,829.856,336.489,781.06,307.303C718.714,270.011,662.724,252.391,606.036,252.391z"/>
			</g>
		</g>
	</g>
</g>
</svg>
