<?xml version="1.0" encoding="utf-8"?>
<!-- Generator: Adobe Illustrator 23.0.3, SVG Export Plug-In . SVG Version: 6.00 Build 0)  -->
<svg version="1.1" id="Capa_1" xmlns="http://www.w3.org/2000/svg" xmlns:xlink="http://www.w3.org/1999/xlink" x="0px" y="0px"
	 viewBox="0 0 1200 1200" enable-background="new 0 0 1200 1200" xml:space="preserve">
<g id="lima">
	<path fill="#7EAF70" d="M1135.233,413.775c-0.683-15.608-2.267-31.113-6.093-46.332c-6.586-26.204-15.662-51.386-29.813-74.565
		c-25.977-42.548-59.958-77.437-101.683-104.509c-37.31-24.208-78.376-38.499-122.666-43.304c-18.81-2.04-37.608-2.792-56.396,0.248
		c-12.84,2.078-25.616,4.485-37.957,8.674c-22.607,7.675-44.49,17.089-65.566,28.295c-11.303,6.01-22.209,12.765-32.27,20.697
		c-22.351,17.621-43.123,36.961-62.18,58.128c-2.895,3.216-5.995,6.262-9.163,9.211c-1.568,1.46-3.407,2.709-5.301,3.722
		c-4.543,2.431-9.096,2.435-13.529-0.451c-5.342-3.478-9.407-8.3-13.712-12.878c-5.346-5.684-10.52-11.55-16.126-16.966
		c-9.513-9.189-19.249-18.152-28.999-27.092c-10.417-9.551-21.797-17.84-33.705-25.445c-16.51-10.545-34.204-18.695-52.196-26.284
		c-13.982-5.897-28.034-11.578-42.889-14.96c-12.892-2.935-25.836-5.408-39.082-6.316c-8.482-0.581-16.89-0.163-25.341,0.18
		c-14.546,0.589-28.932,2.297-43.138,5.469c-33.924,7.573-65.968,19.89-95.11,38.985c-26.987,17.683-51.219,38.622-71.98,63.444
		c-14.372,17.184-27.58,35.198-37.613,55.277c-19.116,38.256-29.278,78.679-28.213,121.677c0.606,16.428,1.069,32.884,3.057,49.28
		c2.38,19.624,6.101,38.941,11.404,57.968c13.052,46.834,32.797,90.84,56.365,133.221c23.666,42.557,51.14,82.527,81.521,120.566
		c47.221,59.122,100.868,111.589,161.499,156.873c44.97,33.587,92.658,62.586,144.254,84.933
		c18.487,8.007,36.868,16.286,56.221,22.083c2.485,0.744,4.984,1.461,7.505,2.067c9.71,2.335,19.391,0.424,29.075-0.304
		c0.84-0.063,1.655-0.495,2.476-0.772c7.797-2.636,15.72-4.951,23.365-7.971c38.55-15.228,76.098-32.563,111.677-53.953
		c52.809-31.749,101.385-69.041,146.136-111.375c45.072-42.638,85.02-89.686,120.605-140.438
		c30.704-43.791,57.217-90.006,78.111-139.299c18.275-43.114,31.821-87.519,35.66-134.516
		C1134.892,449.299,1136.011,431.567,1135.233,413.775z"/>
	<path fill="#E2E276" d="M1106.281,361.93c-8.391-32.385-23.042-61.541-43.933-87.697c-16.898-21.157-36.248-39.6-58.022-55.676
		c-22.734-16.785-47.529-29.383-74.435-37.772c-19.054-5.941-38.49-10.159-58.471-11.756c-17.135-1.37-34.274-1.695-51.271,0.694
		c-19.124,2.687-37.829,7.427-55.766,14.759c-18.466,7.548-36.542,15.963-54.005,25.614c-13.491,7.456-26.364,15.915-38.392,25.573
		c-15.407,12.371-29.834,25.838-43.459,40.136c-6.457,6.776-13.496,12.857-20.694,18.785c-1.332,1.097-2.779,2.089-4.283,2.935
		c-4.189,2.359-8.494,2.754-13.113,1.032c-5.816-2.168-10.874-5.307-14.909-10.06c-2.104-2.479-4.155-5.025-6.465-7.303
		c-10.654-10.505-21.37-20.947-32.101-31.373c-12.8-12.437-26.908-23.2-41.884-32.886c-16.438-10.63-34.101-18.887-51.752-27.192
		c-14.557-6.849-29.66-12.079-45.304-15.844c-16.085-3.871-32.315-6.275-48.904-5.836c-4.769,0.126-9.551-0.065-14.31,0.201
		c-6.489,0.362-13.011,0.688-19.428,1.64c-8.561,1.27-17.082,2.91-25.537,4.769c-32.328,7.104-62.318,19.721-89.44,38.8
		c-7.795,5.484-15.375,11.314-22.723,17.386c-25.681,21.223-46.985,46.299-63.106,75.406
		c-19.789,35.728-29.865,74.209-29.749,115.198c0.051,17.789,0.794,35.531,2.991,53.211c1.551,12.484,3.537,24.876,6.214,37.164
		c5.504,25.273,13.583,49.752,23.236,73.698c20.441,50.706,47.177,98.016,78.463,142.746
		c37.417,53.496,80.013,102.52,128.165,146.679c39.753,36.456,82.51,68.922,128.379,97.294
		c36.053,22.301,74.188,40.41,113.447,56.242c9.452,3.812,19.096,7.036,29.147,8.957c2.597,0.496,5.144,0.87,7.718,0.212
		c3.981-1.018,7.996-1.958,11.894-3.242c26.597-8.767,52.165-20.061,77.362-32.17c34.672-16.662,67.305-36.789,98.648-59.047
		c54.727-38.862,103.877-83.862,147.875-134.507c36.924-42.502,70.097-87.723,98.314-136.505
		c21.866-37.802,40.747-76.963,54.982-118.34c14.45-42.005,21.52-85.195,22.201-132.164
		C1113.625,398.741,1111.998,383.993,1106.281,361.93z M370.104,229.47c5.197-8.529,12.809-13.113,23.026-13.485
		c9.077-0.331,17.643,1.502,25.973,4.836c14.765,5.91,28.471,13.744,41.326,23.064c17.738,12.861,34.704,26.699,51.234,41.064
		c16.081,13.974,33.337,26.304,51.44,37.483c7.997,4.938,16.585,8.369,25.837,10.201c5.477,1.085,10.572,0.799,15.824-1.516
		c6.99-3.081,13.46-6.808,19.627-11.325c4.519-3.309,9.226-6.392,13.82-9.628c14.383-10.129,27.65-21.631,41.241-32.738
		c14.61-11.939,29.558-23.419,45.398-33.702c1.45-0.941,3.031-1.818,4.176-3.068c4.65-5.078,10.589-8.188,16.57-11.271
		c5.389-2.778,10.764-5.581,16.153-8.359c1.154-0.595,2.288-1.319,3.521-1.658c8.991-2.476,18.043-4.702,27.471-4.373
		c13.286,0.464,22.668,9.882,23.331,23.162c0.342,6.838-0.924,13.427-3.287,19.74c-2.349,6.277-5.032,12.453-7.953,18.488
		c-5.771,11.923-12.718,23.184-20.358,33.99c-16.515,23.362-33.164,46.629-49.748,69.942
		c-19.351,27.204-39.155,54.071-59.796,80.314c-10.875,13.827-22.788,26.706-35.473,38.882c-3.449,3.311-7.13,6.301-11.512,8.846
		c-0.918,0-2.068,0.252-3.055-0.042c-4.987-1.488-9.897-0.115-14.814,0.309c-3.66,0.315-7.308,0.912-10.922,1.594
		c-4.566,0.862-9.024,0.568-13.537-0.416c-2.928-0.638-5.814-1.452-8.809-1.928c-3.001-0.477-5.777-2.754-8.491-4.493
		c-1.43-0.916-2.634-2.27-3.739-3.594c-10.166-12.174-21.96-22.777-32.919-34.185C491.081,423.364,451.99,379.846,417.2,332.62
		c-10.798-14.658-21.794-29.172-32.482-43.909c-4.19-5.777-7.943-11.892-11.603-18.026c-4.03-6.755-6.659-14.08-7.792-21.911
		c-0.309-2.134-0.816-4.239-1.32-6.805C365.926,237.971,367.65,233.498,370.104,229.47z M666.42,587.88
		c0.044,13.81-4.491,25.933-13.486,36.342c-10.307,11.928-23.274,19.352-38.88,21.699c-10.495,1.578-20.747,0.009-30.55-4.083
		c-12.699-5.302-23.054-13.632-31.283-24.627c-6.537-8.733-10.147-18.607-10.989-29.436c-0.595-7.662,0.705-15.165,3.293-22.353
		c7.645-21.233,21.727-36.121,43.391-43.399c2.915-0.979,5.865-1.318,8.932-1.385c4.096-0.089,8.182-0.61,12.278-0.797
		c1.922-0.088,3.892-0.019,5.783,0.308c5.361,0.926,10.481,2.634,15.354,5.093c1.916,0.966,3.936,1.725,6.618,2.886
		c11.328,9.657,20.081,21.299,25.046,35.598C664.645,571.545,666.394,579.547,666.42,587.88z M147.456,530.789
		c-6.195-5.272-10.986-11.637-14.921-18.71c-1.678-3.016-3.503-5.95-5.326-9.029c-1.733-7.209-3.651-14.539-5.242-21.939
		c-2.934-13.648-3.187-27.531-3.208-41.414c-0.057-37.841,9.002-73.307,27.247-106.523c4.377-7.969,8.198-16.235,13.444-23.707
		c15.238-21.701,33.737-40.152,55.693-55c14.393-9.734,30.596-15.135,47.579-18.324c3.958-0.743,7.744,0.022,11.47,1.386
		c8.616,3.152,16.742,7.275,23.767,13.182c7.792,6.552,15.659,13.095,22.791,20.334c14.3,14.516,28.304,29.334,42.101,44.331
		c26.426,28.724,52.732,57.56,78.862,86.554c10.881,12.073,21.315,24.559,31.72,37.05c16.375,19.656,32.601,39.437,48.785,59.251
		c4.522,5.536,8.806,11.28,12.943,17.111c2.116,2.983,3.851,6.281,5.424,9.596c2.451,5.167,2.268,10.42,0.125,15.747
		c-2.858,7.104-7.851,12.342-14.533,17.369c-25.739,0.967-51.504,2.332-77.286,2.774c-19.283,0.331-38.587-0.51-57.88-0.873
		c-4.118-0.078-8.232-0.491-12.348-0.499c-42.716-0.086-85.412-1.932-128.141-1.141c-16.252,0.301-32.521-0.344-48.783-0.546
		c-17.793-0.221-32.83-6.931-45.554-19.205C153.383,535.86,150.423,533.314,147.456,530.789z M467.211,837.565
		c-0.875,2.447-1.942,4.824-2.861,7.256c-4.148,10.97-12.393,17.496-23.142,21.232c-4.489,1.561-9.048,2.928-13.6,4.3
		c-7.237,2.181-14.653,1.814-21.921,0.649c-9.023-1.446-17.506-4.58-25.508-9.23c-17.871-10.386-34.307-22.744-50.375-35.652
		c-26.486-21.277-49.866-45.617-71.43-71.809c-8.153-9.902-15.769-20.086-22.097-31.269c-8.752-15.465-17.988-30.658-26.637-46.179
		c-7.936-14.243-14.015-29.303-17.965-45.17c-1.161-4.663-1.548-9.391-1.207-14.186c0.69-9.691,5.452-16.825,13.961-21.239
		c4.199-2.178,8.691-3.985,13.249-5.233c7.507-2.056,15.133-3.747,22.788-5.162c5.949-1.1,12.002-1.785,18.04-2.231
		c10.157-0.75,20.339-1.157,30.51-1.721c10.171-0.564,20.334-1.342,30.512-1.67c14.08-0.454,28.171-0.581,42.258-0.832
		c2.384-0.043,4.77-0.006,7.155-0.006c0-0.037,0-0.073,0-0.11c10.841,0,21.686,0.182,32.522-0.04
		c19.529-0.4,39.012,0.794,58.496,1.652c13.846,0.61,27.571,2.749,41.196,5.404c4.457,0.869,8.987,1.357,13.466,2.121
		c5.142,0.877,9.317,3.562,12.543,7.544c3.281,4.051,5.89,8.545,7.893,13.397c1.468,3.555,1.723,7.134,0.861,10.823
		c-5.175,22.155-10.729,44.195-18.372,65.67c-12.42,34.897-24.597,69.886-35.037,105.435
		C477.925,806.912,472.68,822.269,467.211,837.565z M719.839,895.096c-0.206,4.179-1.586,8.051-3.46,11.758
		c-2.267,4.486-5.193,8.527-8.697,12.099c-3.64,3.711-7.304,7.434-11.268,10.783c-10.927,9.231-21.933,18.374-33.062,27.359
		c-14.24,11.497-30.04,20.505-46.527,28.329c-3.314,1.573-6.795,2.856-10.298,3.96c-10.314,3.253-20.47,3.048-30.315-1.855
		c-1.939-0.966-3.959-1.779-5.847-2.832c-27.738-15.476-52.238-34.832-71.755-60.116c-2.115-2.74-4.062-5.624-5.922-8.545
		c-9.42-14.799-12.318-30.773-8.473-47.93c4.695-20.953,10.78-41.497,18.332-61.595c6.324-16.828,12.823-33.589,19.224-50.388
		c9.87-25.906,19.709-51.824,29.589-77.727c2.699-7.076,5.498-14.114,7.92-20.321c4.302-5.144,8.971-5.681,14.162-4.077
		c2.067,0.639,4.142,1.255,6.196,1.933c14.602,4.818,29.246,5.844,43.943,0.445c4.564-1.677,9.262-2.246,14.055-1.687
		c4,0.467,7.075,2.296,9.712,5.653c4.909,6.247,8.295,13.125,10.793,20.588c9.418,28.131,19.24,56.132,28.31,84.374
		c10.262,31.954,20.382,63.967,28.651,96.518c1.438,5.662,2.556,11.405,3.883,17.096
		C720.233,884.268,720.107,889.682,719.839,895.096z M1026.091,606.088c-1.789,6.014-3.626,12.04-5.922,17.872
		c-4.93,12.52-10.943,24.531-17.8,36.122c-3.972,6.713-7.822,13.501-11.622,20.314c-11.541,20.691-25.295,39.893-39.432,58.844
		c-15.099,20.24-32.453,38.393-51.003,55.462c-20.592,18.948-41.569,37.439-63.919,54.314c-9.704,7.327-19.788,14.068-30.727,19.444
		c-7.628,3.749-15.533,6.652-24.076,7.448c-14.145,1.318-26.507-2.912-37.144-12.201c-1.419-1.239-2.599-2.953-3.385-4.677
		c-2.423-5.315-4.933-10.629-6.811-16.147c-4.812-14.147-9.284-28.394-13.094-42.87c-8.275-31.443-18.245-62.391-28.726-93.156
		c-7.344-21.555-14.126-43.247-19.394-65.402c-1.303-5.479-2.303-11.033-3.729-16.477c-0.875-3.342-0.473-6.429,0.67-9.537
		c2.041-5.55,5.066-10.565,8.753-15.137c3.364-4.171,7.744-6.981,13.071-7.936c15.128-2.711,30.218-5.724,45.432-7.832
		c13.72-1.901,27.568-2.967,41.387-4.033c19.443-1.5,38.919-2.571,58.369-3.995c13.613-0.997,27.2-2.347,40.809-3.408
		c8.642-0.674,17.301-1.122,25.954-1.648c12.547-0.763,25.094-1.526,37.644-2.25c10.598-0.612,21.199-1.169,29.802-1.64
		c12.435,0.008,22.769,1.246,33.04,2.86c3.798,0.597,7.573,1.947,11.101,3.528c6.836,3.063,10.773,8.521,11.699,16.015
		C1027.708,595.39,1027.655,600.829,1026.091,606.088z M1076.498,467.613c-3.122,11.945-8.475,22.644-16.946,31.788
		c-4.856,5.242-9.441,10.714-14.453,15.843c-8.601,8.802-19.172,13.248-30.945,15.152c-12.609,2.039-25.273,3.798-37.955,5.325
		c-16.56,1.994-33.181,3.48-49.74,5.478c-18.708,2.257-37.375,4.848-56.062,7.279c-17.826,2.319-35.664,4.553-53.48,6.955
		c-10.516,1.418-20.976,3.25-31.5,4.6c-9.666,1.24-19.371,2.21-29.079,3.07c-13.6,1.204-27.21,2.334-40.833,3.227
		c-8.432,0.552-16.897,0.602-25.347,0.886c-3.153,0.106-6.065-0.702-8.494-2.69c-3.177-2.599-6.858-4.922-9.148-8.187
		c-4.108-5.857-5.776-12.668-3.386-19.765c1.307-3.88,2.943-7.726,4.988-11.264c4.555-7.878,9.329-15.637,14.248-23.294
		c12.891-20.063,26.027-39.969,38.837-60.083c11.424-17.937,23.78-35.213,36.256-52.417c23.931-33.001,47.721-66.104,71.71-99.063
		c11.103-15.255,22.636-30.186,35.151-44.335c6.785-7.671,14.219-14.682,22.581-20.517c8.033-5.605,17.129-8.111,27.089-6.483
		c8.56,1.399,17.103,2.945,25.335,5.664c5.738,1.896,11.477,4.06,16.805,6.88c26.197,13.866,49.221,31.868,67.163,55.538
		c21.119,27.861,37.824,58.094,45.193,92.771c2.119,9.972,3.948,19.979,4.691,30.161c0.552,7.561,1.116,15.121,1.675,22.681
		C1080.705,444.609,1079.479,456.209,1076.498,467.613z M651.394,574.116c1.51,6.59,1.64,13.182,0.492,19.958
		c-3.511,20.746-23.503,37.202-45.052,36.357c-22.307,0.352-45.119-17.793-49.004-40.61c-1.783-10.47,0.026-20.36,4.962-29.544
		c7.708-14.34,19.461-23.551,35.774-26.334c11.95-2.039,22.805,0.877,32.484,7.943C642.036,549.907,648.391,561.017,651.394,574.116
		z"/>
	<path fill="#618856" d="M1149.597,409.74c-0.64-14.343-2.228-28.515-5.486-42.484c-6.987-29.956-17.442-58.549-33.909-84.705
		c-19.676-31.253-43.582-58.771-72.028-82.437c-23.852-19.844-49.643-36.379-78.382-48.117
		c-28.014-11.442-56.905-19.476-87.226-21.938c-17.548-1.425-35.051-2.108-52.554,0.266c-13.752,1.866-27.411,4.345-40.601,8.693
		c-28.05,9.247-55.149,20.723-80.674,35.705c-14.249,8.364-27.715,17.857-40.024,28.886c-9.85,8.826-19.468,17.914-29.109,26.971
		c-7.908,7.428-15.405,15.251-22.364,23.596c-2.184,2.619-4.274,5.432-7.402,7.547c-1.02-0.969-1.997-1.778-2.835-2.713
		c-5.066-5.65-9.921-11.501-15.18-16.964c-13.996-14.54-28.861-28.177-44.086-41.413c-4.412-3.836-9.073-7.406-13.79-10.867
		c-16.131-11.836-33.283-21.968-51.574-30.095c-18.604-8.267-37.108-16.828-56.858-22.143c-22.285-5.997-44.867-9.804-68.064-8.634
		c-6.707,0.338-13.406,0.839-20.111,1.212c-13.903,0.773-27.479,3.46-40.97,6.756c-34.639,8.461-67.105,22.013-96.604,42.108
		c-26.096,17.777-49.636,38.509-70.153,62.642c-28.502,33.524-49.712,70.843-60.878,113.655
		c-4.172,15.995-7.467,32.127-8.192,48.619c-1.057,24.058-0.665,48.097,2.047,72.095c2.513,22.239,6.667,44.105,12.75,65.628
		c11.904,42.116,28.981,82.118,49.581,120.642c46.323,86.631,105.909,163.119,177.026,230.738
		c40.515,38.523,84.504,72.595,131.689,102.566c37.068,23.545,76.227,42.973,116.828,59.591
		c11.028,4.514,22.049,9.027,33.533,12.287c12.229,3.471,24.642,4.926,37.298,3.07c9.247-1.356,18.215-3.877,26.963-7.128
		c28.459-10.578,56.25-22.715,83.251-36.586c58.954-30.285,112.677-68.239,162.423-111.887
		c37.57-32.965,72.168-68.816,103.745-107.602c31.002-38.078,59.354-77.965,83.784-120.59
		c23.121-40.342,42.969-82.141,57.448-126.445c10.833-33.147,17.697-67.018,20.042-101.761
		C1150.044,442.29,1150.324,426.024,1149.597,409.74z M1133.443,467.041c-3.839,46.997-17.385,91.402-35.66,134.516
		c-20.894,49.294-47.407,95.509-78.111,139.299c-35.585,50.752-75.533,97.799-120.605,140.438
		c-44.751,42.334-93.327,79.627-146.136,111.375c-35.579,21.39-73.127,38.725-111.677,53.953c-7.645,3.02-15.568,5.334-23.365,7.971
		c-0.821,0.278-1.636,0.709-2.476,0.772c-9.684,0.729-19.365,2.64-29.075,0.304c-2.522-0.607-5.02-1.323-7.505-2.067
		c-19.354-5.798-37.734-14.076-56.221-22.083c-51.597-22.347-99.284-51.346-144.254-84.933
		c-60.631-45.284-114.278-97.751-161.499-156.873c-30.381-38.038-57.855-78.009-81.521-120.566
		c-23.568-42.381-43.313-86.387-56.365-133.221c-5.303-19.028-9.024-38.344-11.404-57.968c-1.988-16.395-2.451-32.851-3.057-49.28
		c-1.065-42.998,9.097-83.422,28.213-121.677c10.033-20.079,23.241-38.093,37.613-55.277c20.761-24.822,44.993-45.761,71.98-63.444
		c29.142-19.095,61.185-31.413,95.11-38.985c14.206-3.171,28.592-4.879,43.138-5.469c8.451-0.342,16.858-0.761,25.341-0.18
		c13.246,0.908,26.19,3.381,39.082,6.316c14.855,3.382,28.906,9.063,42.889,14.96c17.992,7.589,35.686,15.739,52.196,26.284
		c11.907,7.605,23.288,15.894,33.705,25.445c9.75,8.94,19.486,17.903,28.999,27.092c5.607,5.416,10.78,11.282,16.126,16.966
		c4.305,4.577,8.37,9.4,13.712,12.878c4.433,2.886,8.986,2.882,13.529,0.451c1.894-1.013,3.732-2.263,5.301-3.722
		c3.168-2.949,6.268-5.995,9.163-9.211c19.057-21.167,39.829-40.507,62.18-58.128c10.061-7.932,20.967-14.687,32.27-20.697
		c21.077-11.206,42.96-20.621,65.566-28.295c12.34-4.189,25.116-6.597,37.957-8.674c18.788-3.04,37.586-2.288,56.396-0.248
		c44.291,4.805,85.356,19.096,122.666,43.304c41.726,27.073,75.706,61.961,101.683,104.509
		c14.152,23.179,23.227,48.362,29.813,74.565c3.826,15.219,5.41,30.724,6.093,46.332
		C1136.011,431.567,1134.892,449.299,1133.443,467.041z M1074.488,379.971c-7.369-34.678-24.074-64.911-45.193-92.771
		c-17.942-23.67-40.966-41.672-67.163-55.538c-5.328-2.82-11.067-4.984-16.805-6.88c-8.232-2.72-16.776-4.265-25.335-5.664
		c-9.96-1.628-19.057,0.878-27.089,6.483c-8.362,5.835-15.796,12.845-22.581,20.517c-12.515,14.149-24.049,29.081-35.151,44.335
		c-23.989,32.959-47.779,66.062-71.71,99.063c-12.476,17.204-24.831,34.48-36.256,52.417c-12.81,20.114-25.947,40.019-38.837,60.083
		c-4.92,7.657-9.694,15.416-14.248,23.294c-2.046,3.538-3.682,7.384-4.988,11.264c-2.39,7.097-0.722,13.908,3.386,19.765
		c2.29,3.265,5.972,5.588,9.148,8.187c2.429,1.987,5.341,2.795,8.494,2.69c8.45-0.284,16.915-0.333,25.347-0.886
		c13.623-0.893,27.233-2.023,40.833-3.227c9.708-0.859,19.413-1.83,29.079-3.07c10.524-1.35,20.984-3.182,31.5-4.6
		c17.815-2.402,35.653-4.635,53.48-6.955c18.687-2.431,37.354-5.022,56.062-7.279c16.559-1.998,33.18-3.484,49.74-5.478
		c12.682-1.527,25.345-3.287,37.955-5.325c11.774-1.904,22.344-6.35,30.945-15.152c5.012-5.129,9.597-10.601,14.453-15.843
		c8.471-9.144,13.823-19.843,16.946-31.788c2.981-11.403,4.207-23.004,4.355-34.8c-0.559-7.56-1.124-15.12-1.675-22.681
		C1078.435,399.949,1076.607,389.943,1074.488,379.971z M948.164,243.984c14.877,7.643,29.059,16.363,41.805,27.265
		c12.724,10.883,24.233,22.922,34.133,36.448c2.132,2.914,4.474,5.757,5.925,9.869c-1.799-0.103-3.072,0.073-4.179-0.277
		c-10.174-3.219-20.581-2.696-30.918-1.609c-26.738,2.812-51.178,12.382-74.184,25.959c-1.678,0.99-3.333,2.026-5.056,2.93
		c-0.472,0.248-1.154,0.095-1.933,0.136c0.331-2.348,2.063-3.442,3.245-4.879c5.363-6.523,10.986-12.848,16.059-19.587
		c3.764-5.001,7.126-10.365,10.136-15.858c5.27-9.619,8.215-19.949,8.457-31.025c0.19-8.665-1.887-16.72-5.694-24.411
		c-0.942-1.904-1.908-3.797-2.97-5.908C945.274,242.128,946.695,243.23,948.164,243.984z M696.176,518.334
		c0.059-0.285,0.117-0.57,0.175-0.854c1.152-2.069,2.196-4.209,3.477-6.195c13.872-21.494,27.869-42.909,41.654-64.458
		c11.695-18.28,24.499-35.773,37.213-53.336c22.632-31.263,45.165-62.599,67.88-93.803c10.976-15.078,22.223-29.971,34.792-43.781
		c4.22-4.637,8.874-8.896,13.505-13.138c2.872-2.631,6.115-4.834,10.207-6.483c14.616,3.724,26.564,10.78,30.726,26.906
		c1.604,6.213,1.377,12.473,0.17,18.7c-1.291,6.66-3.901,12.828-7.381,18.644c-5.137,8.587-10.972,16.678-17.717,24.056
		c-8.193,8.961-16.488,17.836-24.941,26.552c-27.798,28.661-56.988,55.862-86.81,82.393c-2.914,2.592-6.044,4.941-9.024,7.461
		c-7.782,6.581-15.671,13.042-23.276,19.823c-20.89,18.626-42.639,36.216-64.417,53.772c-1.665,1.343-3.596,2.357-5.404,3.523
		C696.731,518.189,696.454,518.262,696.176,518.334z M707.509,540.06c-1.774,0.563-3.646,0.818-5.667,1.258
		c0.142-2.801,2.153-3.604,3.5-4.826c10.593-9.613,21.494-18.9,31.823-28.786c22.572-21.603,46.635-41.499,70.456-61.648
		c19.683-16.648,40.231-32.277,60.421-48.324c8.822-7.012,17.67-13.993,26.578-20.895c12.528-9.706,25.802-18.294,39.642-26.002
		c15.81-8.805,32.514-15.283,50.289-18.812c9.592-1.905,19.303-2.862,29.078-2.024c3.41,0.293,6.826,1.116,10.116,2.108
		c5.82,1.755,10.213,5.447,13.533,10.568c8.227,12.688,9.296,26.319,5.368,40.545c-2.97,10.756-9.151,19.564-17.481,26.853
		c-6.378,5.581-13.398,10.288-20.768,14.473c-11.693,6.638-23.787,12.463-36.164,17.694c-48.465,20.48-97.053,40.675-146.348,59.082
		c-23.313,8.705-46.922,16.624-70.484,24.645C736.858,530.92,722.156,535.411,707.509,540.06z M1042.452,496.483
		c-7.864,9.259-16.778,16.988-29.266,19.098c-8.533,1.442-17.097,2.711-25.67,3.898c-8.148,1.128-16.323,2.065-24.49,3.052
		c-5.588,0.676-11.183,1.302-16.777,1.935c-16.564,1.873-33.144,3.61-49.689,5.638c-19.982,2.45-39.948,5.047-59.896,7.761
		c-16.728,2.277-33.407,4.924-50.136,7.194c-9.435,1.28-18.923,2.185-28.398,3.156c-7.755,0.795-15.524,1.453-23.291,2.136
		c-2.031,0.179-4.112,0.583-7.14-0.706c2.698-1.03,4.414-1.77,6.183-2.347c46.311-15.109,92.333-31.023,137.499-49.322
		c7.626-3.09,15.338-5.982,22.859-9.307c10.963-4.847,22.358-8.15,34.126-10.192c12.579-2.183,25.132-4.674,37.8-6.131
		c14.037-1.615,28.154-1.671,41.708,3.484c3.435,1.306,6.897,2.636,10.128,4.364c7.065,3.779,14.007,7.788,20.955,11.78
		c1.448,0.832,2.706,1.997,3.936,2.922C1042.689,495.673,1042.701,496.189,1042.452,496.483z M1058.842,468.594
		c-1.57,4.686-3.522,9.211-6.406,13.626c-1.554-0.655-2.759-1.03-3.833-1.637c-6.966-3.94-13.877-7.98-20.857-11.895
		c-10.687-5.993-22.145-9.761-34.287-11.299c-3.849-0.488-7.775-0.355-11.665-0.524c-1.887-0.082-3.773-0.205-5.744-0.314
		c0.305-2.262,1.973-2.447,3.262-3.085c9.884-4.886,19.828-9.655,29.629-14.703c7.902-4.07,15.226-9.082,22.214-14.589
		c11.866-9.353,20.537-20.949,25.196-35.421c0.389-1.207,0.978-2.352,1.51-3.509c0.067-0.145,0.354-0.188,1.317-0.657
		c2.168,5.083,2.872,10.215,3.512,15.308c0.89,7.078,1.831,14.187,2.046,21.304C1065.221,437.27,1063.999,453.2,1058.842,468.594z
		 M250.522,558.313c42.729-0.79,85.426,1.055,128.141,1.141c4.116,0.008,8.23,0.422,12.348,0.499
		c19.294,0.363,38.597,1.204,57.88,0.873c25.781-0.442,51.546-1.807,77.286-2.774c6.682-5.026,11.675-10.265,14.533-17.369
		c2.143-5.327,2.326-10.581-0.125-15.747c-1.573-3.315-3.308-6.613-5.424-9.596c-4.136-5.831-8.421-11.575-12.943-17.111
		c-16.184-19.814-32.41-39.595-48.785-59.251c-10.406-12.491-20.839-24.976-31.72-37.05c-26.13-28.993-52.435-57.83-78.862-86.554
		c-13.797-14.996-27.801-29.815-42.101-44.331c-7.132-7.239-14.999-13.782-22.791-20.334c-7.025-5.907-15.151-10.03-23.767-13.182
		c-3.726-1.364-7.512-2.129-11.47-1.386c-16.983,3.189-33.186,8.59-47.579,18.324c-21.955,14.848-40.455,33.299-55.693,55
		c-5.246,7.472-9.066,15.738-13.444,23.707c-18.246,33.217-27.305,68.682-27.247,106.523c0.021,13.883,0.274,27.766,3.208,41.414
		c1.591,7.401,3.509,14.731,5.242,21.939c1.822,3.079,3.648,6.013,5.326,9.029c3.935,7.073,8.726,13.438,14.921,18.71
		c2.967,2.525,5.927,5.07,8.729,7.773c12.724,12.273,27.761,18.983,45.554,19.205C218.001,557.969,234.27,558.613,250.522,558.313z
		 M247.454,265.572c0.06-3.49,0.467-6.909,1.966-10.054c2.114-2.324,5.072-2.728,7.74-3.198c6.936-1.221,13.788-0.94,20.26,2.468
		c6.766,3.562,12.957,7.958,18.531,13.116c8.75,8.097,17.529,16.198,25.762,24.808c13.485,14.102,26.584,28.575,39.769,42.962
		c19.779,21.582,39.431,43.28,59.252,64.823c16.304,17.72,32.05,35.898,47.101,54.705c13.953,17.434,28.448,34.434,42.587,51.72
		c4.525,5.533,8.761,11.311,12.961,17.098c1.512,2.083,2.632,4.477,3.724,6.824c0.396,0.852,0.19,1.984,0.255,2.925
		c-2.652,0.968-4.068-0.691-5.605-1.673c-11.689-7.472-23.278-15.101-35.005-22.513c-39.07-24.695-76.223-52.116-113.397-79.514
		c-16.758-12.351-33.53-24.676-49.336-38.249c-19.475-16.724-37.491-34.852-52.512-55.742c-4.795-6.669-9.111-13.726-13.145-20.888
		c-5.486-9.739-8.291-20.402-9.781-31.467C247.767,277.681,247.349,271.651,247.454,265.572z M173.552,317.543
		c13.249-18.723,29.092-34.956,47.25-48.935c2.567-1.976,5.349-3.689,8.118-5.383c1.046-0.64,2.335-0.881,4.565-1.682
		c-1.406,12.889,0.285,24.395,2.712,35.863c2.401,11.343,7.368,21.647,12.795,31.583c-1.826,1.84-3.269,0.645-4.518,0.183
		c-7.117-2.633-14.33-4.882-21.763-6.463c-16.094-3.424-32.173-4.177-48.292-0.183c-0.939,0.233-1.986,0.03-3.681,0.03
		C171.902,320.461,172.589,318.904,173.552,317.543z M150.821,367.596c0.366-10.532,4.948-18.679,13.522-24.645
		c6.176-4.297,13.167-6.438,20.518-7.653c13.995-2.314,27.641-0.303,41.137,3.308c11.35,3.037,22.118,7.549,32.436,13.177
		c2.816,1.536,5.841,2.692,9.833,4.505c-0.094-0.098,0.704,0.641,1.39,1.473c19.561,23.723,42.162,44.259,66.574,62.805
		c19.506,14.819,39.444,29.068,59.044,43.763c27.078,20.3,55.105,39.206,83.513,57.569c2.159,1.396,4.123,3.095,6.177,4.653
		c0.112,0.373,0.224,0.746,0.336,1.119c-0.284-0.171-0.567-0.342-0.851-0.512c-2.296-0.568-4.636-0.998-6.88-1.725
		c-51.091-16.542-102.248-32.862-154.14-46.772c-14.653-3.928-29.498-6.939-44.358-9.912c-5.08-1.016-10.157-1.907-15.105-3.682
		c-4.028-1.445-8.482-1.662-12.705-2.606c-31.444-7.033-57.867-22.698-79.445-46.546c-7.475-8.261-13.444-17.535-17.511-27.962
		C151.754,381.407,150.576,374.648,150.821,367.596z M137.982,481.039c-1.896-2.101-2.11-4.47-2.368-6.729
		c-0.762-6.656-1.598-13.312-2.034-19.993c-1.289-19.756,0.26-39.322,4.453-58.673c0.177-0.818,0.495-1.605,0.943-3.027
		c1.018,1.05,1.954,1.62,2.31,2.441c10.998,25.335,29.777,43.722,52.327,58.758c2.114,1.41,4.231,2.817,6.346,4.226
		c-0.097,0.448-0.193,0.896-0.29,1.344c-4.703,0.453-9.402,0.949-14.109,1.352c-16.596,1.419-31.673,6.569-44.28,17.873
		C140.346,479.447,139.257,480.108,137.982,481.039z M177.238,536.323c-6.576-4.242-12.46-9.298-18.417-14.357
		c-5.963-5.064-10.083-11.223-13.868-17.789c-1.065-1.846-1.769-3.9-2.479-5.498c0.699-2.756,2.474-4.116,4.039-5.561
		c10.477-9.676,22.569-15.813,36.938-17.425c13.849-1.554,27.687-1.747,41.508-0.298c41.678,4.368,82.392,13.45,122.592,25.133
		c42.202,12.265,84.13,25.392,125.907,39.018c2.673,0.872,5.336,1.785,7.968,2.773c0.955,0.358,1.807,0.993,2.705,1.502
		c-0.051,0.411-0.101,0.822-0.152,1.233c-1.683,0.148-3.362,0.363-5.048,0.432c-7.578,0.308-15.157,0.779-22.737,0.81
		c-12.35,0.051-24.701-0.182-37.05-0.328c-2.383-0.028-4.762-0.262-7.145-0.301c-36.41-0.592-72.819-1.247-109.231-1.71
		c-16.038-0.204-32.082,0.14-48.12-0.033c-18.638-0.201-37.275-0.624-55.909-1.102C191.03,542.624,183.799,540.555,177.238,536.323z
		 M373.116,270.684c3.66,6.135,7.413,12.249,11.603,18.026c10.688,14.737,21.684,29.251,32.482,43.909
		c34.79,47.226,73.88,90.744,114.461,132.986c10.959,11.408,22.753,22.011,32.919,34.185c1.105,1.324,2.31,2.678,3.739,3.594
		c2.714,1.739,5.49,4.015,8.491,4.493c2.995,0.476,5.881,1.29,8.809,1.928c4.513,0.984,8.971,1.277,13.537,0.416
		c3.614-0.682,7.262-1.279,10.922-1.594c4.917-0.423,9.827-1.797,14.814-0.309c0.987,0.294,2.136,0.042,3.055,0.042
		c4.382-2.545,8.063-5.535,11.512-8.846c12.685-12.176,24.597-25.055,35.473-38.882c20.641-26.244,40.445-53.111,59.796-80.314
		c16.584-23.313,33.233-46.58,49.748-69.942c7.639-10.806,14.587-22.067,20.358-33.99c2.921-6.034,5.603-12.211,7.953-18.488
		c2.363-6.313,3.629-12.902,3.287-19.74c-0.663-13.28-10.045-22.699-23.331-23.162c-9.428-0.329-18.48,1.898-27.471,4.373
		c-1.233,0.339-2.367,1.063-3.521,1.658c-5.389,2.778-10.764,5.581-16.153,8.359c-5.981,3.083-11.92,6.193-16.57,11.271
		c-1.145,1.25-2.726,2.127-4.176,3.068c-15.84,10.282-30.788,21.762-45.398,33.702c-13.591,11.106-26.858,22.608-41.241,32.738
		c-4.595,3.236-9.301,6.319-13.82,9.628c-6.167,4.517-12.637,8.244-19.627,11.325c-5.251,2.314-10.346,2.6-15.824,1.516
		c-9.252-1.832-17.84-5.263-25.837-10.201c-18.103-11.179-35.36-23.509-51.44-37.483c-16.53-14.365-33.497-28.203-51.234-41.064
		c-12.854-9.32-26.561-17.154-41.326-23.064c-8.33-3.334-16.897-5.167-25.973-4.836c-10.217,0.372-17.829,4.956-23.026,13.485
		c-2.454,4.028-4.178,8.501-6.101,12.499c0.504,2.566,1.011,4.671,1.32,6.805C366.457,256.604,369.086,263.929,373.116,270.684z
		 M747.963,260.06c6.774-5.048,13.755-9.826,20.758-14.554c6.117-4.129,12.628-7.565,19.506-10.301
		c2.809-1.117,5.514-2.496,8.409-3.822c3.158,0.868,4.406,3.383,4.468,6.304c0.073,3.433-0.136,6.933-0.753,10.306
		c-1.1,6.003-3.643,11.551-6.225,17.047c-6.566,13.974-14.599,27.092-23.526,39.654c-20.719,29.154-41.345,58.378-62.385,87.299
		c-14.663,20.155-29.869,39.917-45.004,59.724c-4.732,6.193-10.022,11.961-15.06,17.92c-1.533,1.813-3.078,3.616-5.361,6.296
		c-0.769-2.099-1.16-2.665-1.158-3.23c0.058-20.638,1.612-41.14,6.204-61.308c6.115-26.86,17.048-51.711,30.94-75.453
		C696.483,305.679,720.017,280.885,747.963,260.06z M618.575,341.151c5.653-1.338,10.169-4.743,14.57-8.189
		c16.69-13.072,33.278-26.274,49.877-39.462c4.743-3.768,9.35-7.708,14.109-11.456c1.847-1.455,3.939-2.597,5.919-3.882
		c0.404-0.269,0.807-0.537,1.211-0.806c-0.279,0.392-0.559,0.784-0.838,1.175c-1.039,1.363-1.977,2.819-3.134,4.072
		c-25.445,27.54-44.034,59.258-57.448,94.137c-0.746,1.941-1.015,4.128-3.132,5.924c-0.686-1.628-1.313-2.946-1.802-4.313
		c-1.673-4.675-3.043-9.476-5-14.026c-3.115-7.239-7.648-13.536-13.758-18.626c-0.96-0.799-1.778-1.768-2.841-2.839
		C617.253,342.125,617.84,341.326,618.575,341.151z M589.627,363.573c1.024-2.121,2.291-4.218,3.847-5.971
		c3.695-4.164,7.865-4.891,12.892-2.598c3.023,1.379,5.412,3.556,7.493,6.093c3.332,4.06,5.792,8.631,7.544,13.556
		c2.839,7.984,4.489,16.23,5.527,24.643c1.305,10.573,1.301,21.172,1.195,31.784c-0.117,11.719-1.738,23.308-3.164,34.907
		c-0.924,7.515-2.132,14.994-3.236,22.486c-0.155,1.052-0.441,2.084-0.703,3.297c-1.282,0.46-2.47,1.248-3.659,1.25
		c-5.383,0.007-10.59,2.22-16.424,1.394c-0.995-2.101-2.141-4.165-2.979-6.348c-4.11-10.708-8.359-21.372-12.09-32.212
		c-1.602-4.654-2.148-9.685-3.034-14.57c-2.681-14.792-3.079-29.73-2.083-44.668C581.522,385.082,584.583,374.016,589.627,363.573z
		 M512.451,305.197c1.25,0.845,2.565,1.609,3.738,2.549c12.188,9.771,25.201,18.35,38.403,26.657
		c6.993,4.4,14.37,7.976,22.327,10.305c1.64,0.48,3.23,1.128,5.145,1.806c-0.492,1.21-0.737,2.261-1.291,3.112
		c-7.967,12.233-11.846,25.876-13.981,40.137c-0.255,1.701-0.673,3.382-1.104,5.049c-0.086,0.333-0.576,0.561-0.931,0.885
		c-2.007-1.241-2.409-3.504-3.262-5.411c-8.767-19.611-19.015-38.426-30.665-56.453c-5.047-7.811-10.697-15.233-16.068-22.835
		c-1.12-1.585-2.216-3.187-3.323-4.782c-0.358-0.514-0.716-1.028-1.075-1.542c-0.269-0.474-0.538-0.948-0.807-1.421
		c0.446,0.285,0.894,0.576,1.344,0.871C511.419,304.48,511.935,304.839,512.451,305.197z M392.436,230.774
		c2.31-0.335,4.711-0.05,7.086-0.05c2.602,2.581,5.535,4.153,8.965,5.155c2.637,0.77,5.114,2.368,7.417,3.953
		c32.325,22.248,61.342,48.149,86.055,78.7c15.474,19.129,27.633,40.381,38.773,62.229c6.203,12.167,11.627,24.681,16.118,37.595
		c3.983,11.453,8.2,22.825,12.116,34.3c1.251,3.666,2.095,7.511,2.734,11.339c1.181,7.065,2.651,14.036,4.996,20.817
		c0.318,0.919,0.219,1.983,0.277,2.993c-3.617-1.478-6.32-4.211-9.022-6.879c-9.717-9.591-19.625-19.007-28.974-28.948
		c-18.113-19.259-36.182-38.575-53.746-58.332c-23.341-26.254-45.13-53.814-65.387-82.503
		c-11.861-16.798-22.529-34.44-33.681-51.736c-1.641-2.544-3.117-5.212-4.458-7.927
		C377.356,242.678,382.774,232.175,392.436,230.774z M1015.338,573.949c-3.528-1.581-7.303-2.931-11.101-3.528
		c-10.27-1.614-20.605-2.852-33.04-2.86c-8.603,0.472-19.204,1.028-29.802,1.64c-12.549,0.724-25.096,1.487-37.644,2.25
		c-8.653,0.526-17.312,0.974-25.954,1.648c-13.609,1.062-27.196,2.411-40.809,3.408c-19.449,1.424-38.926,2.496-58.369,3.995
		c-13.82,1.066-27.667,2.133-41.387,4.033c-15.214,2.108-30.304,5.121-45.432,7.832c-5.326,0.954-9.706,3.764-13.071,7.936
		c-3.688,4.573-6.712,9.587-8.753,15.137c-1.143,3.108-1.546,6.195-0.67,9.537c1.426,5.444,2.426,10.998,3.729,16.477
		c5.268,22.155,12.05,43.847,19.394,65.402c10.481,30.765,20.451,61.712,28.726,93.156c3.809,14.476,8.281,28.723,13.094,42.87
		c1.877,5.518,4.388,10.832,6.811,16.147c0.786,1.724,1.966,3.438,3.385,4.677c10.637,9.289,22.999,13.519,37.144,12.201
		c8.543-0.796,16.448-3.7,24.076-7.448c10.939-5.376,21.023-12.117,30.727-19.444c22.35-16.875,43.327-35.366,63.919-54.314
		c18.55-17.069,35.904-35.222,51.003-55.462c14.137-18.95,27.891-38.152,39.432-58.844c3.8-6.813,7.651-13.6,11.622-20.314
		c6.857-11.591,12.87-23.602,17.8-36.122c2.296-5.832,4.133-11.858,5.922-17.872c1.565-5.26,1.617-10.698,0.947-16.125
		C1026.112,582.47,1022.174,577.012,1015.338,573.949z M798.488,845.566c-0.507,1.874-1.175,3.715-1.909,5.515
		c-1.207,2.959-3.287,4.826-6.457,5.875c-7.909,2.616-15.679,2.991-23.446-0.374c-1.39-0.602-2.778-1.222-4.207-1.722
		c-3.675-1.286-6.095-3.802-7.98-7.184c-7.096-12.733-12.688-26.033-16.422-40.159c-6.803-25.74-13.448-51.534-20.907-77.087
		c-6.609-22.642-14.195-45-21.427-67.458c-3.8-11.802-6.075-23.902-7.455-36.192c-0.116-1.03-0.015-2.084-0.015-4.549
		c1.915,1.56,2.788,2.137,3.501,2.87c23.338,23.991,44.537,49.71,61.908,78.38c15.977,26.37,29.453,53.979,39.043,83.36
		c4.178,12.799,7.23,25.855,7.649,39.401C800.565,832.76,800.202,839.236,798.488,845.566z M877.404,795.57
		c-16.401,14.446-32.716,28.995-50.275,42.054c-2.951,2.194-5.944,4.336-8.997,6.385c-1.016,0.683-2.278,1-3.588,1.553
		c-0.214-0.959-0.537-1.588-0.455-2.159c2.62-18.146-0.162-35.777-5.033-53.209c-3.089-11.054-7.063-21.801-11.404-32.415
		c-0.713-1.745-1.513-3.433-1.694-5.393c2.477-0.248,3.394,1.455,4.653,2.493c6.507,5.367,12.801,11.01,19.498,16.125
		c8.793,6.716,18.326,12.239,28.722,16.206c8.389,3.201,17.028,4.813,26.001,4.711c1.449-0.016,2.901,0.148,5.737,0.307
		C878.863,794.039,878.195,794.874,877.404,795.57z M915.793,755.252c-5.871,9.572-14.301,15.429-24.761,18.848
		c-14.735,4.817-28.949,3.757-42.883-3.089c-11.779-5.787-22.227-13.427-32.065-21.992c-11.79-10.263-22.895-21.201-32.935-33.208
		c-3.048-3.646-6.016-7.449-10.711-9.568c-17.925-31.388-40.248-59.649-65.004-86.169c0.984-0.646,1.152-0.801,1.35-0.875
		c0.197-0.073,0.441-0.131,0.635-0.081c3.765,0.967,7.56,1.836,11.282,2.95c36.282,10.858,72.552,21.758,109.351,32.804
		c2.757,2.681,6.599,4.558,10.596,6.328c15.268,6.761,30.008,14.569,44.22,23.327c11.716,7.22,22.038,16.085,30.492,27.028
		c4.676,6.053,8.424,12.581,10.619,19.993C924.054,740.546,920.248,747.99,915.793,755.252z M981.048,667.192
		c-2.682,4.941-5.312,9.916-8.161,14.761c-8.569,14.57-18.512,28.218-28.37,41.92c-1.079,1.5-1.937,3.383-4.457,3.908
		c-0.564-1.332-1.263-2.636-1.678-4.025c-2.263-7.575-6.132-14.273-10.913-20.508c-9.462-12.34-20.984-22.373-34.049-30.726
		c-1.72-1.099-4.053-1.662-4.969-4.624c3.944,0.284,7.512,0.555,11.067,1.058c14.826,2.097,29.733,2.998,44.664,1.932
		c10.781-0.77,21.458-2.561,31.861-5.689c1.612-0.484,3.278-0.789,4.73-1.132C982.154,665.267,981.535,666.295,981.048,667.192z
		 M1007.313,607.046c-2.327,8.842-5.516,17.299-9.15,25.663c-2.389,5.498-6.223,9.248-11.363,11.982
		c-6.531,3.474-13.301,6.25-20.548,7.892c-13.592,3.079-27.281,4.549-41.253,3.846c-28.251-1.421-55.856-6.402-83.148-13.714
		c-24.899-6.671-49.401-14.612-74.061-22.053c-15.75-4.752-31.562-9.299-47.361-13.885c-1.861-0.54-3.755-0.883-5.559-2.652
		c1.872-0.637,3.404-1.435,5.015-1.661c7.717-1.08,15.446-2.083,23.189-2.962c6.885-0.781,13.792-1.375,20.693-2.028
		c6.04-0.572,12.074-1.286,18.127-1.627c11.254-0.633,22.522-0.996,33.781-1.553c13.853-0.685,27.704-1.412,41.551-2.201
		c9.086-0.518,18.169-1.111,27.244-1.795c7.344-0.553,14.671-1.339,22.012-1.936c7.344-0.597,14.691-1.46,22.045-1.549
		c15.386-0.187,30.772-1.208,46.162-0.324c8.006,0.459,16.006,1.032,24.003,1.641c1.689,0.129,3.35,0.644,4.876,0.951
		C1007.753,594.704,1009.071,600.367,1007.313,607.046z M535.917,620.203c0.862-3.689,0.607-7.268-0.861-10.823
		c-2.003-4.852-4.612-9.346-7.893-13.397c-3.225-3.982-7.4-6.667-12.543-7.544c-4.479-0.764-9.009-1.252-13.466-2.121
		c-13.624-2.656-27.35-4.794-41.196-5.404c-19.483-0.858-38.966-2.052-58.496-1.652c-10.837,0.222-21.681,0.04-32.522,0.04
		c0,0.037,0,0.073,0,0.11c-2.385,0-4.771-0.036-7.155,0.006c-14.087,0.252-28.177,0.379-42.258,0.832
		c-10.178,0.328-20.341,1.106-30.512,1.67c-10.171,0.564-20.353,0.971-30.51,1.721c-6.038,0.446-12.09,1.13-18.04,2.231
		c-7.655,1.416-15.282,3.107-22.788,5.162c-4.558,1.248-9.05,3.055-13.249,5.233c-8.509,4.413-13.271,11.547-13.961,21.239
		c-0.341,4.795,0.046,9.523,1.207,14.186c3.95,15.867,10.029,30.927,17.965,45.17c8.648,15.521,17.885,30.714,26.637,46.179
		c6.328,11.183,13.945,21.367,22.097,31.269c21.564,26.192,44.944,50.532,71.43,71.809c16.068,12.908,32.503,25.266,50.375,35.652
		c8.001,4.65,16.485,7.784,25.508,9.23c7.268,1.165,14.683,1.532,21.921-0.649c4.552-1.372,9.111-2.739,13.6-4.3
		c10.749-3.736,18.994-10.262,23.142-21.232c0.919-2.432,1.986-4.809,2.861-7.256c5.47-15.295,10.714-30.653,15.297-46.256
		c10.44-35.549,22.617-70.538,35.037-105.435C525.187,664.399,530.742,642.359,535.917,620.203z M206.422,617.212
		c-0.046-0.862-0.006-1.729-0.006-3.666c3.64-3.576,7.992-6.148,13.193-7.178c7.434-1.472,14.922-2.688,22.328-4.287
		c10.854-2.344,21.917-2.716,32.901-3.848c19.871-2.05,39.816-2.223,59.764-2.46c22.986-0.273,45.972-0.604,68.952-1.149
		c19.539-0.463,39.017,0.401,58.484,1.879c1.945,0.148,3.899,0.304,5.846,0.28c8.293-0.104,16.37,1.576,24.494,2.871
		c1.085,0.173,2.12,0.514,2.425,2.235c-1.285,0.471-2.599,1.088-3.981,1.44c-21.231,5.415-41.891,12.599-62.316,20.439
		c-26.293,10.093-52.337,20.796-78.226,31.901c-9.485,4.068-19.426,7.261-29.617,9.38c-7.843,1.631-15.652,3.459-23.538,4.841
		c-21.841,3.828-42.636,0.595-62.54-9.253C216.49,651.684,207.482,637.085,206.422,617.212z M257.73,724.454
		c-0.246,1.01-0.716,1.965-1.145,3.112c-2.901-1.266-3.839-3.843-5.224-5.938c-12.663-19.145-23.839-39.613-26.095-47.621
		c1.157-1.457,2.399-0.426,3.421,0.069c6.436,3.113,13.09,5.599,19.921,7.716c11.094,3.438,22.439,4.389,33.96,4.098
		c2.099-0.053,4.201-0.008,6.301-0.008c0.158,0.449,0.315,0.898,0.473,1.347c-1.661,1.312-3.284,2.676-4.99,3.927
		c-5.599,4.106-10.847,8.599-15.489,13.779C263.749,710.642,259.575,716.876,257.73,724.454z M353.017,790.665
		c-3.565,9.305-4.371,18.928-2.951,28.765c0.117,0.814,0.129,1.642,0.199,2.593c-0.92,0-1.696,0.248-2.091-0.036
		c-17.979-12.927-34.945-27.055-50.44-42.903c-0.833-0.852-1.372-1.99-2.487-3.647c2.281,0,3.789-0.249,5.186,0.04
		c9.122,1.888,18.147,0.506,27.139-0.813c11.4-1.673,22.399-4.877,33.005-9.41c1.177-0.503,2.449-0.787,3.688-1.136
		c0.142-0.04,0.353,0.163,0.963,0.472c-0.29,0.86-0.485,1.851-0.936,2.706c-2.023,3.829-4.261,7.551-6.149,11.444
		C356.258,782.63,354.564,786.627,353.017,790.665z M511.269,652.49c-3.26,9.863-6.567,19.71-9.877,29.556
		c-5.034,14.972-10.413,29.838-15.058,44.929c-7.704,25.025-14.987,50.18-22.359,75.306c-4.235,14.433-10.538,27.911-18.217,40.799
		c-1.842,3.092-4.157,5.468-7.568,6.766c-2.02,0.769-3.937,1.805-5.944,2.611c-6.594,2.646-13.326,3.509-20.34,1.77
		c-10.737-2.662-21.228-5.929-31.11-11.034c-3.808-1.967-6.821-4.534-8.76-8.34c-1.572-3.083-3.238-6.126-4.652-9.281
		c-3.883-8.661-4.263-17.613-1.572-26.637c1.17-3.924,2.65-7.796,4.398-11.499c7.466-15.814,17.601-29.802,29.658-42.414
		c1.63-1.705,3.544-3.194,5.504-4.521c38.643-26.159,72.66-57.45,103.096-92.734c1.177-1.364,2.023-3.324,4.66-3.532
		C513.13,647.265,512.132,649.878,511.269,652.49z M512.988,617.764c-4.795,6.428-9.457,12.982-14.64,19.089
		c-26.487,31.21-56.008,59.204-89.328,83.064c-6.135,4.393-13.159,7.519-18.643,12.875c-14.488,9.214-29.514,17.388-45.88,22.766
		c-11.997,3.943-24.319,6.295-37.032,5.926c-7.96-0.231-15.369-2.403-22.171-6.576c-3.742-2.296-6.89-5.202-9.432-8.813
		c-4.878-6.929-5.901-19.009,0.242-26.858c3.906-4.99,8.233-9.491,13.201-13.393c7.348-5.771,15.126-10.887,23.388-15.258
		c18.201-9.628,36.71-18.633,55.662-26.668c27.917-11.837,56.003-23.257,84.56-33.499c19.395-6.956,39.215-12.395,59.176-17.389
		c0.778-0.194,1.626-0.106,2.387-0.146C515.396,615.184,513.938,616.492,512.988,617.764z M715.102,861.825
		c-8.269-32.551-18.389-64.564-28.651-96.518c-9.07-28.242-18.892-56.242-28.31-84.374c-2.499-7.463-5.885-14.341-10.793-20.588
		c-2.637-3.357-5.712-5.186-9.712-5.653c-4.793-0.56-9.491,0.01-14.055,1.687c-14.697,5.399-29.341,4.373-43.943-0.445
		c-2.054-0.678-4.129-1.295-6.196-1.933c-5.191-1.604-9.86-1.067-14.162,4.077c-2.422,6.207-5.221,13.245-7.92,20.321
		c-9.88,25.903-19.719,51.82-29.589,77.727c-6.4,16.799-12.9,33.56-19.224,50.388c-7.552,20.097-13.637,40.641-18.332,61.595
		c-3.845,17.157-0.947,33.131,8.473,47.93c1.86,2.922,3.806,5.805,5.922,8.545c19.517,25.284,44.017,44.64,71.755,60.116
		c1.888,1.053,3.909,1.867,5.847,2.832c9.845,4.903,20.001,5.108,30.315,1.855c3.502-1.105,6.983-2.388,10.298-3.96
		c16.487-7.824,32.287-16.832,46.527-28.329c11.13-8.985,22.136-18.128,33.062-27.359c3.964-3.349,7.628-7.072,11.268-10.783
		c3.503-3.572,6.429-7.613,8.697-12.099c1.874-3.707,3.253-7.579,3.46-11.758c0.268-5.415,0.393-10.828-0.854-16.176
		C717.658,873.229,716.541,867.487,715.102,861.825z M514.056,907.093c-2.677,2.039-3.031,2.144-7.273,2.962
		c-0.584-0.692-1.367-1.432-1.927-2.314c-6.55-10.314-9.122-21.496-6.79-33.56c3.42-17.69,8.271-35.026,14.499-51.911
		c9.147-24.802,18.841-49.403,28.163-74.142c9.245-24.535,18.315-49.135,27.475-73.701c0.521-1.396,1.17-2.744,2.126-4.966
		c3.98,1.702,7.299,3.121,10.743,4.593c0.356,6.626-0.081,12.889-0.386,19.152c-0.169,3.465-0.426,6.927-0.544,10.393
		c-1.074,31.52-5.103,62.601-13.456,93.079c-5.616,20.489-11.321,40.94-19.458,60.613c-5.569,13.464-11.957,26.469-21.268,37.845
		C522.374,899.518,518.571,903.656,514.056,907.093z M552.087,954.556c-8.45-3.533-30.424-23.467-35.124-31.922
		c5.116-4.071,10.167-7.5,14.48-11.689c4.319-4.196,7.901-9.153,11.737-13.695c2.128,0.286,1.703,1.814,1.76,3.004
		c0.342,7.138,0.505,14.287,0.992,21.415c0.683,9.987,2.758,19.719,5.918,29.222c0.33,0.992,0.41,2.07,0.558,3.115
		C552.432,954.17,552.2,954.372,552.087,954.556z M613.399,960.105c-4.277,5.194-9.577,8.524-16.253,9.994
		c-5.683,1.251-10.707,0.15-15.559-2.667c-3.235-1.878-5.829-4.466-8.143-7.372c-4.675-5.868-7.7-12.569-9.517-19.763
		c-4.233-16.757-5.477-33.767-3.268-50.929c1.713-13.308,3.735-26.578,5.719-39.85c0.317-2.118,1.081-4.183,1.764-6.231
		c7.818-23.436,14.324-47.23,19.38-71.411c2.351-11.241,3.847-22.62,4.857-34.06c0.477-5.392,0.926-10.787,1.44-16.176
		c0.073-0.765,0.44-1.501,0.652-2.192c2.133,0.188,2.101,1.705,2.463,2.881c3.879,12.624,7.647,25.283,11.632,37.873
		c5.161,16.305,10.264,32.636,15.858,48.794c2.368,6.841,3.513,13.815,4.595,20.87c1.115,7.275,2.233,14.549,3.376,21.82
		c2.774,17.65,3.042,35.34,1.263,53.115c-1.085,10.839-3.197,21.405-6.949,31.622C623.55,945.024,619.247,953.003,613.399,960.105z
		 M680.142,924.166c-8.818,7.343-17.552,14.794-26.553,21.906c-5.253,4.15-10.926,7.771-16.458,11.56
		c-1.207,0.827-2.471,1.816-4.145,1.353c0.607-1.584,1.074-3.241,1.846-4.74c7.948-15.427,12.125-31.901,13.492-49.112
		c0.617-7.759,0.796-15.553,1.21-23.329c0.053-0.99,0.326-1.969,0.488-2.901c1.764-0.057,2.146,1.086,2.636,1.969
		c1.786,3.215,3.392,6.534,5.264,9.697c2.974,5.026,6.01,10.021,9.198,14.913c3.337,5.121,7.476,9.525,12.554,13.005
		c1.024,0.702,1.913,1.601,3.23,2.719C681.817,922.383,681.075,923.389,680.142,924.166z M695.362,910.19
		c-3.495,0.19-5.825-1.509-7.84-3.433c-2.494-2.38-4.874-4.949-6.915-7.722c-9.043-12.286-16.088-25.755-21.821-39.805
		c-6.542-16.032-12.337-32.371-18.324-48.625c-9.885-26.838-17.739-54.328-26.139-81.645c-4.713-15.327-9.043-30.74-12.206-46.466
		c-0.335-1.665-0.46-3.371-0.724-5.374c6.336-1.324,11.848-2.336,17.286-3.652c5.209-1.26,10.145-3.645,15.024-4.064
		c3.788,1.717,5.599,4.424,7.008,7.376c1.209,2.533,2.205,5.181,3.118,7.839c7.598,22.116,15.464,44.147,22.656,66.394
		c12.521,38.732,24.932,77.508,35.093,116.952c1.783,6.922,3.413,13.863,3.78,21.062C705.819,898.068,701.692,904.73,695.362,910.19
		z M636.883,528.127c-2.682-1.161-4.703-1.92-6.618-2.886c-4.873-2.458-9.993-4.166-15.354-5.093
		c-1.891-0.327-3.862-0.396-5.783-0.308c-4.097,0.187-8.182,0.708-12.278,0.797c-3.067,0.067-6.018,0.405-8.932,1.385
		c-21.664,7.278-35.746,22.166-43.391,43.399c-2.588,7.187-3.888,14.691-3.293,22.353c0.841,10.829,4.452,20.704,10.989,29.436
		c8.229,10.994,18.584,19.324,31.283,24.627c9.803,4.093,20.055,5.662,30.55,4.083c15.606-2.347,28.573-9.771,38.88-21.699
		c8.994-10.408,13.53-22.532,13.486-36.342c-0.027-8.333-1.775-16.335-4.491-24.155
		C656.964,549.427,648.211,537.785,636.883,528.127z M651.886,594.074c-3.511,20.746-23.503,37.202-45.052,36.357
		c-22.307,0.352-45.119-17.793-49.004-40.61c-1.783-10.47,0.026-20.36,4.962-29.544c7.708-14.34,19.461-23.551,35.774-26.334
		c11.95-2.039,22.805,0.877,32.484,7.943c10.986,8.021,17.342,19.131,20.344,32.23C652.904,580.706,653.034,587.298,651.886,594.074
		z"/>
</g>
</svg>
